<svg xmlns="http://www.w3.org/2000/svg" xmlns:xlink="http://www.w3.org/1999/xlink" xml:space="preserve" style="shape-rendering:geometricPrecision;text-rendering:geometricPrecision;image-rendering:optimizeQuality;" viewBox="0 0 100 100" x="0px" y="0px" fill-rule="evenodd" clip-rule="evenodd"><defs><style type="text/css">
   
    .fil0 {fill:black}
   
  </style></defs><g><path class="fil0" d="M80.2483 30.8979c-4.74689,-18.3131 -26.8077,-27.6569 -45.122,-22.91 15.3533,1.72206 24.9144,7.18116 29.6034,16.1836 -4.2024,-4.61224 -9.70283,-8.1355 -16.1482,-9.91779 -18.2328,-5.04571 -37.355,9.38748 -42.4019,27.6215 10.0595,-13.643 20.5277,-18.9994 31.792,-17.2478 -1.68663,0.226773 -3.35908,0.577564 -4.99965,1.05237l0.00354333 0.00590556c-6.01658,1.84726 -11.5938,5.36107 -15.971,10.4942 -12.2788,14.3918 -7.27919,37.8227 7.11384,50.1028 -6.49493,-11.9139 -8.06699,-21.821 -5.18036,-30.1561 -0.549217,4.21893 -0.317719,8.60912 0.813786,12.9757 4.74807,18.3131 26.8089,27.6569 45.1232,22.91 -15.3509,-1.72088 -24.912,-7.17762 -29.601,-16.1777 4.20358,4.60752 9.70283,8.12959 16.1446,9.91307 18.234,5.04453 37.3562,-9.38866 42.4031,-27.6227 -10.0607,13.6466 -20.5289,19.0005 -31.7943,17.2478 1.68781,-0.226773 3.36026,-0.578745 5.00201,-1.05355l-0.00236222 -0.00236222c6.0154,-1.84844 11.5926,-5.36225 15.971,-10.4954 12.2777,-14.393 7.27801,-37.8227 -7.11502,-50.1028 6.49848,11.9174 8.06935,21.8281 5.17799,30.1644 0.551579,-4.22247 0.320081,-8.61503 -0.812605,-12.9851z"></path></g></svg>